# xmcd
#
# Track frame offsets: 
#        150
#        22671
#        46993
#        67878
#        89849
#        119596
#        145039
#        169029
#        196425
#        213940
#        258465
#        287830
#        312704
#
# Disc length: 4596 seconds
#
# Revision: 3
# Processed by: cddbd v1.5.2PL0 Copyright (c) Steve Scherf et al.
# Submitted via: ExactAudioCopy v1.0b3
#
DISCID=c111f20d
DTITLE=Various Artist - Blues Paradise  vol.15
DYEAR=2002
DGENRE=Blues
TTITLE0=Rich Harper Blues Band - She's On Her Way Up
TTITLE1=Blistering Blues Band feat. Bill Macpherson - Help The Poor
TTITLE2=The Boneshakers - Let's Straighten It Out
TTITLE3=The Eric Jepardi Band - Pain
TTITLE4=Richard Waters and The Blues Boyz - Long Cold Lonely Winter
TTITLE5=Scott Hold Band - Let's Straighten It Out
TTITLE6=Michael Barclay Blues Band - Don't Want To Touch That Woman
TTITLE7=Red Beans and Rise - The Dark Side
TTITLE8=Chris Michie - Swee Disposition
TTITLE9=Mick Martin and The Bluesrockers - Losing You
TTITLE10=Craig Erickson - The Loneniest Hour
TTITLE11=Peter Green Splinter Group - Tribal Dance
TTITLE12=Jon Butcher - Cactus Flower
EXTD=
EXTT0=
EXTT1=
EXTT2=
EXTT3=
EXTT4=
EXTT5=
EXTT6=
EXTT7=
EXTT8=
EXTT9=
EXTT10=
EXTT11=
EXTT12=
PLAYORDER=
